<mxfile host="app.diagrams.net" modified="2022-05-08T08:22:52.166Z" agent="5.0 (Windows NT 10.0; Win64; x64) AppleWebKit/537.36 (KHTML, like Gecko) Chrome/101.0.4951.54 Safari/537.36" etag="ZNlXojezYmgIDiMfcLQm" version="18.0.2" type="github">
  <diagram id="TDxX8cwt7GcWImq1MCj-" name="Page-1">
    <mxGraphModel dx="1038" dy="539" grid="1" gridSize="10" guides="1" tooltips="1" connect="1" arrows="1" fold="1" page="1" pageScale="1" pageWidth="850" pageHeight="1100" math="0" shadow="0">
      <root>
        <mxCell id="0" />
        <mxCell id="1" parent="0" />
        <mxCell id="9hIsZzmEhTKkY4CkzeHd-2" style="edgeStyle=orthogonalEdgeStyle;rounded=0;orthogonalLoop=1;jettySize=auto;html=1;entryX=0.5;entryY=1;entryDx=0;entryDy=0;startArrow=classic;startFill=1;" edge="1" parent="1" source="9hIsZzmEhTKkY4CkzeHd-1" target="9hIsZzmEhTKkY4CkzeHd-3">
          <mxGeometry relative="1" as="geometry">
            <mxPoint x="410" y="130" as="targetPoint" />
          </mxGeometry>
        </mxCell>
        <mxCell id="9hIsZzmEhTKkY4CkzeHd-1" value="נטב&lt;br&gt;" style="rounded=0;whiteSpace=wrap;html=1;" vertex="1" parent="1">
          <mxGeometry x="350" y="210" width="120" height="60" as="geometry" />
        </mxCell>
        <mxCell id="9hIsZzmEhTKkY4CkzeHd-3" value="מחשב 1" style="ellipse;whiteSpace=wrap;html=1;" vertex="1" parent="1">
          <mxGeometry x="350" y="40" width="120" height="80" as="geometry" />
        </mxCell>
        <mxCell id="9hIsZzmEhTKkY4CkzeHd-8" style="edgeStyle=orthogonalEdgeStyle;rounded=0;orthogonalLoop=1;jettySize=auto;html=1;exitX=1;exitY=0.5;exitDx=0;exitDy=0;entryX=0.5;entryY=1;entryDx=0;entryDy=0;startArrow=classic;startFill=1;" edge="1" parent="1" source="9hIsZzmEhTKkY4CkzeHd-4" target="9hIsZzmEhTKkY4CkzeHd-1">
          <mxGeometry relative="1" as="geometry" />
        </mxCell>
        <mxCell id="9hIsZzmEhTKkY4CkzeHd-4" value="מחשב 2" style="ellipse;whiteSpace=wrap;html=1;" vertex="1" parent="1">
          <mxGeometry x="150" y="240" width="120" height="80" as="geometry" />
        </mxCell>
        <mxCell id="9hIsZzmEhTKkY4CkzeHd-9" style="edgeStyle=orthogonalEdgeStyle;rounded=0;orthogonalLoop=1;jettySize=auto;html=1;exitX=1;exitY=0.5;exitDx=0;exitDy=0;entryX=0;entryY=0.5;entryDx=0;entryDy=0;startArrow=classic;startFill=1;" edge="1" parent="1" source="9hIsZzmEhTKkY4CkzeHd-5" target="9hIsZzmEhTKkY4CkzeHd-1">
          <mxGeometry relative="1" as="geometry" />
        </mxCell>
        <mxCell id="9hIsZzmEhTKkY4CkzeHd-5" value="מחשב 3" style="ellipse;whiteSpace=wrap;html=1;" vertex="1" parent="1">
          <mxGeometry x="160" y="110" width="120" height="80" as="geometry" />
        </mxCell>
        <mxCell id="9hIsZzmEhTKkY4CkzeHd-7" style="edgeStyle=orthogonalEdgeStyle;rounded=0;orthogonalLoop=1;jettySize=auto;html=1;entryX=1;entryY=0.5;entryDx=0;entryDy=0;startArrow=classic;startFill=1;" edge="1" parent="1" source="9hIsZzmEhTKkY4CkzeHd-6" target="9hIsZzmEhTKkY4CkzeHd-1">
          <mxGeometry relative="1" as="geometry" />
        </mxCell>
        <mxCell id="9hIsZzmEhTKkY4CkzeHd-6" value="מחשב 4" style="ellipse;whiteSpace=wrap;html=1;" vertex="1" parent="1">
          <mxGeometry x="580" y="160" width="120" height="80" as="geometry" />
        </mxCell>
      </root>
    </mxGraphModel>
  </diagram>
</mxfile>
